<svg xmlns="http://www.w3.org/2000/svg" viewBox="0 0 247 247" width="247" height="247"><defs></defs><g transform="matrix(1,0,0,1,-794.703125,-293.234375)">
<g>
	<g>
		<path d="M529,292L 777,292 L 777,540 L 529,540 L 529,292 Z" fill="#fffefe" fill-opacity="0"/>
	</g>
	<g>
		<path d="M794.703125,293.234375L 1042.703125,293.234375 L 1042.703125,541.234375 L 794.703125,541.234375 L 794.703125,293.234375 Z" transform="matrix(1,0,0,1,0,0)" fill="#fefffe" fill-opacity="0"/>
	</g>
	<g>
		<g transform="matrix(1,0,0,1,269.703125,1.234375)">
			<path d="M536.71875,374.21875C536.71875,374.21875 536.71875,456.25 536.71875,456.25 C536.71875,456.25 542.578125,456.25 542.578125,456.25 C542.578125,456.25 542.578125,374.21875 542.578125,374.21875 C542.578125,374.21875 536.71875,374.21875 536.71875,374.21875 Z" transform="matrix(0,-1.466666667,0.714285714,0,350.404017857,1092.21875)" fill="#341901" stroke="#341901" stroke-width="2"/>
		</g>
		<g transform="matrix(1,0,0,1,269.703125,1.234375)">
			<path d="M536.71875,374.21875C536.71875,374.21875 536.71875,456.25 536.71875,456.25 C536.71875,456.25 542.578125,456.25 542.578125,456.25 C542.578125,456.25 542.578125,374.21875 542.578125,374.21875 C542.578125,374.21875 536.71875,374.21875 536.71875,374.21875 Z" transform="matrix(0.299933462,-1.435670934,0.69919039,0.146071491,191.875991276,1036.501935349)" fill="#341901" stroke="#341901" stroke-width="2"/>
		</g>
		<g transform="matrix(1,0,0,1,269.703125,1.234375)">
			<path d="M536.71875,374.21875C536.71875,374.21875 536.71875,456.25 536.71875,456.25 C536.71875,456.25 542.578125,456.25 542.578125,456.25 C542.578125,456.25 542.578125,374.21875 542.578125,374.21875 C542.578125,374.21875 536.71875,374.21875 536.71875,374.21875 Z" transform="matrix(0.524482463,-1.369682174,0.667053007,0.255429771,76.476406755,979.567998835)" fill="#341901" stroke="#341901" stroke-width="2"/>
		</g>
		<g transform="matrix(1,0,0,1,269.703125,1.234375)">
			<path d="M536.71875,374.21875C536.71875,374.21875 536.71875,456.25 536.71875,456.25 C536.71875,456.25 542.578125,456.25 542.578125,456.25 C542.578125,456.25 542.578125,374.21875 542.578125,374.21875 C542.578125,374.21875 536.71875,374.21875 536.71875,374.21875 Z" transform="matrix(0.903434238,-1.155386381,0.562688172,0.439984207,-97.61325853,808.172217007)" fill="#341901" stroke="#341901" stroke-width="2"/>
		</g>
		<g transform="matrix(1,0,0,1,269.703125,1.234375)">
			<path d="M536.71875,374.21875C536.71875,374.21875 536.71875,456.25 536.71875,456.25 C536.71875,456.25 542.578125,456.25 542.578125,456.25 C542.578125,456.25 542.578125,374.21875 542.578125,374.21875 C542.578125,374.21875 536.71875,374.21875 536.71875,374.21875 Z" transform="matrix(1.090665196,-0.980591934,0.477561007,0.531168115,-179.092743846,690.041950859)" fill="#341901" stroke="#341901" stroke-width="2"/>
		</g>
		<g transform="matrix(1,0,0,1,269.703125,1.234375)">
			<path d="M536.71875,374.21875C536.71875,374.21875 536.71875,456.25 536.71875,456.25 C536.71875,456.25 542.578125,456.25 542.578125,456.25 C542.578125,456.25 542.578125,374.21875 542.578125,374.21875 C542.578125,374.21875 536.71875,374.21875 536.71875,374.21875 Z" transform="matrix(1.232255287,-0.795398025,0.387369168,0.600124328,-237.211330823,576.31196453)" fill="#341901" stroke="#341901" stroke-width="2"/>
		</g>
		<g transform="matrix(1,0,0,1,269.703125,1.234375)">
			<path d="M536.71875,374.21875C536.71875,374.21875 536.71875,456.25 536.71875,456.25 C536.71875,456.25 542.578125,456.25 542.578125,456.25 C542.578125,456.25 542.578125,374.21875 542.578125,374.21875 C542.578125,374.21875 536.71875,374.21875 536.71875,374.21875 Z" transform="matrix(1.295549196,-0.687505193,0.334823958,0.630949284,-265.622832373,514.648300966)" fill="#341901" stroke="#341901" stroke-width="2"/>
		</g>
		<g transform="matrix(1,0,0,1,269.703125,1.234375)">
			<path d="M536.71875,374.21875C536.71875,374.21875 536.71875,456.25 536.71875,456.25 C536.71875,456.25 542.578125,456.25 542.578125,456.25 C542.578125,456.25 542.578125,374.21875 542.578125,374.21875 C542.578125,374.21875 536.71875,374.21875 536.71875,374.21875 Z" transform="matrix(1.466386962,-0.02864243,0.013949235,0.714149494,-263.257442628,133.917423403)" fill="#341901" stroke="#341901" stroke-width="2"/>
		</g>
		<g transform="matrix(1,0,0,1,269.703125,1.234375)">
			<path d="M536.71875,374.21875C536.71875,374.21875 536.71875,456.25 536.71875,456.25 C536.71875,456.25 542.578125,456.25 542.578125,456.25 C542.578125,456.25 542.578125,374.21875 542.578125,374.21875 C542.578125,374.21875 536.71875,374.21875 536.71875,374.21875 Z" transform="matrix(1.420421708,-0.365394696,0.177951962,0.691763819,-286.489938514,322.718978567)" fill="#341901" stroke="#341901" stroke-width="2"/>
		</g>
	</g>
	<g>
		<g>
			<path d="M536.71875,374.21875C536.71875,374.21875 536.71875,456.25 536.71875,456.25 C536.71875,456.25 542.578125,456.25 542.578125,456.25 C542.578125,456.25 542.578125,374.21875 542.578125,374.21875 C542.578125,374.21875 536.71875,374.21875 536.71875,374.21875 Z" transform="matrix(1.466666667,0,0,0.714285714,-252.46875,120.638392857)" fill="#341901" stroke="#341901" stroke-width="2"/>
		</g>
		<g>
			<path d="M536.71875,374.21875C536.71875,374.21875 536.71875,456.25 536.71875,456.25 C536.71875,456.25 542.578125,456.25 542.578125,456.25 C542.578125,456.25 542.578125,374.21875 542.578125,374.21875 C542.578125,374.21875 536.71875,374.21875 536.71875,374.21875 Z" transform="matrix(1.466666667,0,0,0.714285714,-236.484375,120.638392857)" fill="#341901" stroke="#341901" stroke-width="2"/>
		</g>
		<g>
			<path d="M536.71875,374.21875C536.71875,374.21875 536.71875,456.25 536.71875,456.25 C536.71875,456.25 542.578125,456.25 542.578125,456.25 C542.578125,456.25 542.578125,374.21875 542.578125,374.21875 C542.578125,374.21875 536.71875,374.21875 536.71875,374.21875 Z" transform="matrix(1.466666667,0,0,0.714285714,-218.484375,120.638392857)" fill="#341901" stroke="#341901" stroke-width="2"/>
		</g>
		<g>
			<path d="M536.71875,374.21875C536.71875,374.21875 536.71875,456.25 536.71875,456.25 C536.71875,456.25 542.578125,456.25 542.578125,456.25 C542.578125,456.25 542.578125,374.21875 542.578125,374.21875 C542.578125,374.21875 536.71875,374.21875 536.71875,374.21875 Z" transform="matrix(1.466666667,0,0,0.714285714,-199.484375,120.638392857)" fill="#341901" stroke="#341901" stroke-width="2"/>
		</g>
		<g>
			<path d="M536.71875,374.21875C536.71875,374.21875 536.71875,456.25 536.71875,456.25 C536.71875,456.25 542.578125,456.25 542.578125,456.25 C542.578125,456.25 542.578125,374.21875 542.578125,374.21875 C542.578125,374.21875 536.71875,374.21875 536.71875,374.21875 Z" transform="matrix(1.466666667,0,0,0.714285714,-180.484375,120.638392857)" fill="#341901" stroke="#341901" stroke-width="2"/>
		</g>
		<g>
			<path d="M536.71875,374.21875C536.71875,374.21875 536.71875,456.25 536.71875,456.25 C536.71875,456.25 542.578125,456.25 542.578125,456.25 C542.578125,456.25 542.578125,374.21875 542.578125,374.21875 C542.578125,374.21875 536.71875,374.21875 536.71875,374.21875 Z" transform="matrix(1.466666667,0,0,0.714285714,-162.484375,120.638392857)" fill="#341901" stroke="#341901" stroke-width="2"/>
		</g>
		<g>
			<path d="M536.71875,374.21875C536.71875,374.21875 536.71875,456.25 536.71875,456.25 C536.71875,456.25 542.578125,456.25 542.578125,456.25 C542.578125,456.25 542.578125,374.21875 542.578125,374.21875 C542.578125,374.21875 536.71875,374.21875 536.71875,374.21875 Z" transform="matrix(1.466666667,0,0,0.714285714,-146.484375,120.638392857)" fill="#341901" stroke="#341901" stroke-width="2"/>
		</g>
		<g>
			<path d="M536.71875,374.21875C536.71875,374.21875 536.71875,456.25 536.71875,456.25 C536.71875,456.25 542.578125,456.25 542.578125,456.25 C542.578125,456.25 542.578125,374.21875 542.578125,374.21875 C542.578125,374.21875 536.71875,374.21875 536.71875,374.21875 Z" transform="matrix(1.466666667,0,0,0.714285714,-128.484375,120.638392857)" fill="#341901" stroke="#341901" stroke-width="2"/>
		</g>
		<g>
			<path d="M536.71875,374.21875C536.71875,374.21875 536.71875,456.25 536.71875,456.25 C536.71875,456.25 542.578125,456.25 542.578125,456.25 C542.578125,456.25 542.578125,374.21875 542.578125,374.21875 C542.578125,374.21875 536.71875,374.21875 536.71875,374.21875 Z" transform="matrix(1.466666667,0,0,0.714285714,-110.484375,120.638392857)" fill="#341901" stroke="#341901" stroke-width="2"/>
		</g>
		<g>
			<path d="M536.71875,374.21875C536.71875,374.21875 536.71875,456.25 536.71875,456.25 C536.71875,456.25 542.578125,456.25 542.578125,456.25 C542.578125,456.25 542.578125,374.21875 542.578125,374.21875 C542.578125,374.21875 536.71875,374.21875 536.71875,374.21875 Z" transform="matrix(1.466666667,0,0,0.714285714,-92.484375,120.638392857)" fill="#341901" stroke="#341901" stroke-width="2"/>
		</g>
		<g>
			<path d="M536.71875,374.21875C536.71875,374.21875 536.71875,456.25 536.71875,456.25 C536.71875,456.25 542.578125,456.25 542.578125,456.25 C542.578125,456.25 542.578125,374.21875 542.578125,374.21875 C542.578125,374.21875 536.71875,374.21875 536.71875,374.21875 Z" transform="matrix(1.466666667,0,0,0.714285714,-74.484375,120.638392857)" fill="#341901" stroke="#341901" stroke-width="2"/>
		</g>
		<g>
			<path d="M536.71875,374.21875C536.71875,374.21875 536.71875,456.25 536.71875,456.25 C536.71875,456.25 542.578125,456.25 542.578125,456.25 C542.578125,456.25 542.578125,374.21875 542.578125,374.21875 C542.578125,374.21875 536.71875,374.21875 536.71875,374.21875 Z" transform="matrix(1.466666667,0,0,0.714285714,-56.484375,120.638392857)" fill="#341901" stroke="#341901" stroke-width="2"/>
		</g>
		<g>
			<path d="M536.71875,374.21875C536.71875,374.21875 536.71875,456.25 536.71875,456.25 C536.71875,456.25 542.578125,456.25 542.578125,456.25 C542.578125,456.25 542.578125,374.21875 542.578125,374.21875 C542.578125,374.21875 536.71875,374.21875 536.71875,374.21875 Z" transform="matrix(1.466666667,0,0,0.714285714,-40.484375,120.638392857)" fill="#341901" stroke="#341901" stroke-width="2"/>
		</g>
		<g>
			<path d="M536.71875,374.21875C536.71875,374.21875 536.71875,456.25 536.71875,456.25 C536.71875,456.25 542.578125,456.25 542.578125,456.25 C542.578125,456.25 542.578125,374.21875 542.578125,374.21875 C542.578125,374.21875 536.71875,374.21875 536.71875,374.21875 Z" transform="matrix(1.466666667,0,0,0.714285714,-24.484375,120.638392857)" fill="#341901" stroke="#341901" stroke-width="2"/>
		</g>
	</g>
	<g>
		<path d="M529,416C529,416 777,416 777,416 " transform="matrix(1,0,0,1,0,-21)" fill="#fefefe" stroke="#000000" stroke-width="6"/>
	</g>
	<g>
		<path d="M529,416C529,416 777,416 777,416 " transform="matrix(1,0,0,1,0.3125,21)" fill="#fefefe" stroke="#000000" stroke-width="6"/>
	</g>
	<g>
		<path d="M897.094727,293.234375C897.094727,347.783473 849.549098,395 795,395 " fill="none" stroke="#000000" stroke-width="6"/>
	</g>
	<g>
		<path d="M939.331055,293.234375C939.331055,368.807335 876.583643,437 795,437 " fill="none" stroke="#000000" stroke-width="6"/>
	</g>
</g></g></svg>