<svg xmlns="http://www.w3.org/2000/svg" viewBox="0 0 376 376" width="376" height="376"><defs></defs><g transform="matrix(1,0,0,1,-886.4,-435.2)">
<g>
	<g>
		<path d="M1074.4,435.2C1178.135538,435.2 1262.4,519.464462 1262.4,623.2 C1262.4,726.935538 1178.135538,811.2 1074.4,811.2 C970.664462,811.2 886.4,726.935538 886.4,623.2 C886.4,519.464462 970.664462,435.2 1074.4,435.2 Z" fill="none" stroke="#000000" stroke-width="14.299999999999995"/>
	</g>
	<g>
		<path d="M1074.4,435.2C1129.895219,435.2 1174.974031,480.278812 1174.974031,535.774031 C1174.974031,591.269251 1129.895219,636.348062 1074.4,636.348062 C1018.904781,636.348062 973.825969,591.269251 973.825969,535.774031 C973.825969,480.278812 1018.904781,435.2 1074.4,435.2 Z" transform="matrix(1,0,0,1,0,0)" fill="none" stroke="#000000" stroke-width="14.299999999999995"/>
	</g>
	<g>
		<path d="M1074.4,540C1100.981697,540 1122.574031,561.592334 1122.574031,588.174031 C1122.574031,614.755728 1100.981697,636.348062 1074.4,636.348062 C1047.818303,636.348062 1026.225969,614.755728 1026.225969,588.174031 C1026.225969,561.592334 1047.818303,540 1074.4,540 Z" transform="matrix(1,0,0,1,0,0)" fill="none" stroke="#000000" stroke-width="13.999999999999996"/>
	</g>
</g></g></svg>