<svg xmlns="http://www.w3.org/2000/svg" viewBox="0 0 338 861" width="338" height="861"><defs></defs><g transform="matrix(1,0,0,1,-688.138107754,-90.810481786)">
<g>
	<g>
		<g transform="matrix(0.511458688,0,0,0.511458688,-439.904127478,-308.241112073)">
			<g>
				<path d="M1519.146748,780.222535C1701.845909,780.222535 1850.252586,928.629212 1850.252586,1111.328373 C1850.252586,1294.027534 1701.845909,1442.434211 1519.146748,1442.434211 C1336.447587,1442.434211 1188.04091,1294.027534 1188.04091,1111.328373 C1188.04091,928.629212 1336.447587,780.222535 1519.146748,780.222535 Z" fill="#ffffff"/>
			</g>
			<g>
				<path d="M1519.146748,936.142266C1615.811775,936.142266 1694.332855,1014.663346 1694.332855,1111.328373 C1694.332855,1207.9934 1615.811775,1286.514479 1519.146748,1286.514479 C1422.481721,1286.514479 1343.960641,1207.9934 1343.960641,1111.328373 C1343.960641,1014.663346 1422.481721,936.142266 1519.146748,936.142266 Z" fill="#000000"/>
			</g>
			<g>
				<path d="M1519.146748,910.891979C1629.744499,910.891979 1719.583142,1000.730622 1719.583142,1111.328373 C1719.583142,1221.926124 1629.744499,1311.764767 1519.146748,1311.764767 C1408.548997,1311.764767 1318.710354,1221.926124 1318.710354,1111.328373 C1318.710354,1000.730622 1408.548997,910.891979 1519.146748,910.891979 Z" transform="matrix(1,0,0,1,0,0)" fill="none" stroke="#000000" stroke-width="12.6"/>
			</g>
			<g>
				<path d="M1519.146748,882.547202C1645.384715,882.547202 1747.927919,985.090405 1747.927919,1111.328373 C1747.927919,1237.56634 1645.384715,1340.109544 1519.146748,1340.109544 C1392.90878,1340.109544 1290.365577,1237.56634 1290.365577,1111.328373 C1290.365577,985.090405 1392.90878,882.547202 1519.146748,882.547202 Z" fill="none" stroke="#000000" stroke-width="12.6"/>
			</g>
			<g>
				<path d="M1519.146748,855.777135C1660.156031,855.777135 1774.697986,970.31909 1774.697986,1111.328373 C1774.697986,1252.337656 1660.156031,1366.879611 1519.146748,1366.879611 C1378.137465,1366.879611 1263.59551,1252.337656 1263.59551,1111.328373 C1263.59551,970.31909 1378.137465,855.777135 1519.146748,855.777135 Z" fill="none" stroke="#000000" stroke-width="12.6"/>
			</g>
			<g>
				<path d="M1519.146748,827.432358C1675.796248,827.432358 1803.042763,954.678873 1803.042763,1111.328373 C1803.042763,1267.977872 1675.796248,1395.224388 1519.146748,1395.224388 C1362.497248,1395.224388 1235.250733,1267.977872 1235.250733,1111.328373 C1235.250733,954.678873 1362.497248,827.432358 1519.146748,827.432358 Z" transform="matrix(1,0,0,1,0,0)" fill="none" stroke="#000000" stroke-width="12.6"/>
			</g>
			<g>
				<path d="M1519.146748,801.449645C1690.133113,801.449645 1829.025475,940.342008 1829.025475,1111.328373 C1829.025475,1282.314738 1690.133113,1421.2071 1519.146748,1421.2071 C1348.160383,1421.2071 1209.26802,1282.314738 1209.26802,1111.328373 C1209.26802,940.342008 1348.160383,801.449645 1519.146748,801.449645 Z" fill="none" stroke="#000000" stroke-width="12.6"/>
			</g>
		</g>
		<g transform="matrix(0.511458688,0,0,0.511458688,-439.904127478,-308.241112073)">
			<g transform="matrix(1,0,0,1,0,1022.204952884)">
				<path d="M1519.146748,780.222535C1701.845909,780.222535 1850.252586,928.629212 1850.252586,1111.328373 C1850.252586,1294.027534 1701.845909,1442.434211 1519.146748,1442.434211 C1336.447587,1442.434211 1188.04091,1294.027534 1188.04091,1111.328373 C1188.04091,928.629212 1336.447587,780.222535 1519.146748,780.222535 Z" fill="#ffffff"/>
			</g>
			<g transform="matrix(1,0,0,1,0,1022.204952884)">
				<path d="M1519.146748,936.142266C1615.811775,936.142266 1694.332855,1014.663346 1694.332855,1111.328373 C1694.332855,1207.9934 1615.811775,1286.514479 1519.146748,1286.514479 C1422.481721,1286.514479 1343.960641,1207.9934 1343.960641,1111.328373 C1343.960641,1014.663346 1422.481721,936.142266 1519.146748,936.142266 Z" fill="#000000"/>
			</g>
			<g transform="matrix(1,0,0,1,0,1022.204952884)">
				<path d="M1519.146748,910.891979C1629.744499,910.891979 1719.583142,1000.730622 1719.583142,1111.328373 C1719.583142,1221.926124 1629.744499,1311.764767 1519.146748,1311.764767 C1408.548997,1311.764767 1318.710354,1221.926124 1318.710354,1111.328373 C1318.710354,1000.730622 1408.548997,910.891979 1519.146748,910.891979 Z" transform="matrix(1,0,0,1,0,0)" fill="none" stroke="#000000" stroke-width="12.6"/>
			</g>
			<g transform="matrix(1,0,0,1,0,1022.204952884)">
				<path d="M1519.146748,882.547202C1645.384715,882.547202 1747.927919,985.090405 1747.927919,1111.328373 C1747.927919,1237.56634 1645.384715,1340.109544 1519.146748,1340.109544 C1392.90878,1340.109544 1290.365577,1237.56634 1290.365577,1111.328373 C1290.365577,985.090405 1392.90878,882.547202 1519.146748,882.547202 Z" fill="none" stroke="#000000" stroke-width="12.6"/>
			</g>
			<g transform="matrix(1,0,0,1,0,1022.204952884)">
				<path d="M1519.146748,855.777135C1660.156031,855.777135 1774.697986,970.31909 1774.697986,1111.328373 C1774.697986,1252.337656 1660.156031,1366.879611 1519.146748,1366.879611 C1378.137465,1366.879611 1263.59551,1252.337656 1263.59551,1111.328373 C1263.59551,970.31909 1378.137465,855.777135 1519.146748,855.777135 Z" fill="none" stroke="#000000" stroke-width="12.6"/>
			</g>
			<g transform="matrix(1,0,0,1,0,1022.204952884)">
				<path d="M1519.146748,827.432358C1675.796248,827.432358 1803.042763,954.678873 1803.042763,1111.328373 C1803.042763,1267.977872 1675.796248,1395.224388 1519.146748,1395.224388 C1362.497248,1395.224388 1235.250733,1267.977872 1235.250733,1111.328373 C1235.250733,954.678873 1362.497248,827.432358 1519.146748,827.432358 Z" transform="matrix(1,0,0,1,0,0)" fill="none" stroke="#000000" stroke-width="12.6"/>
			</g>
			<g transform="matrix(1,0,0,1,0,1022.204952884)">
				<path d="M1519.146748,801.449645C1690.133113,801.449645 1829.025475,940.342008 1829.025475,1111.328373 C1829.025475,1282.314738 1690.133113,1421.2071 1519.146748,1421.2071 C1348.160383,1421.2071 1209.26802,1282.314738 1209.26802,1111.328373 C1209.26802,940.342008 1348.160383,801.449645 1519.146748,801.449645 Z" fill="none" stroke="#000000" stroke-width="12.6"/>
			</g>
		</g>
		<g transform="matrix(0.511458688,0,0,0.511458688,-439.904127478,-308.241112073)">
			<g transform="matrix(1,0,0,1,0,511.102476442)">
				<path d="M1519.146748,780.222535C1701.845909,780.222535 1850.252586,928.629212 1850.252586,1111.328373 C1850.252586,1294.027534 1701.845909,1442.434211 1519.146748,1442.434211 C1336.447587,1442.434211 1188.04091,1294.027534 1188.04091,1111.328373 C1188.04091,928.629212 1336.447587,780.222535 1519.146748,780.222535 Z" fill="#ffffff"/>
			</g>
			<g transform="matrix(1,0,0,1,0,511.102476442)">
				<path d="M1519.146748,936.142266C1615.811775,936.142266 1694.332855,1014.663346 1694.332855,1111.328373 C1694.332855,1207.9934 1615.811775,1286.514479 1519.146748,1286.514479 C1422.481721,1286.514479 1343.960641,1207.9934 1343.960641,1111.328373 C1343.960641,1014.663346 1422.481721,936.142266 1519.146748,936.142266 Z" fill="#000000"/>
			</g>
			<g transform="matrix(1,0,0,1,0,511.102476442)">
				<path d="M1519.146748,910.891979C1629.744499,910.891979 1719.583142,1000.730622 1719.583142,1111.328373 C1719.583142,1221.926124 1629.744499,1311.764767 1519.146748,1311.764767 C1408.548997,1311.764767 1318.710354,1221.926124 1318.710354,1111.328373 C1318.710354,1000.730622 1408.548997,910.891979 1519.146748,910.891979 Z" transform="matrix(1,0,0,1,0,0)" fill="none" stroke="#000000" stroke-width="12.6"/>
			</g>
			<g transform="matrix(1,0,0,1,0,511.102476442)">
				<path d="M1519.146748,882.547202C1645.384715,882.547202 1747.927919,985.090405 1747.927919,1111.328373 C1747.927919,1237.56634 1645.384715,1340.109544 1519.146748,1340.109544 C1392.90878,1340.109544 1290.365577,1237.56634 1290.365577,1111.328373 C1290.365577,985.090405 1392.90878,882.547202 1519.146748,882.547202 Z" fill="none" stroke="#000000" stroke-width="12.6"/>
			</g>
			<g transform="matrix(1,0,0,1,0,511.102476442)">
				<path d="M1519.146748,855.777135C1660.156031,855.777135 1774.697986,970.31909 1774.697986,1111.328373 C1774.697986,1252.337656 1660.156031,1366.879611 1519.146748,1366.879611 C1378.137465,1366.879611 1263.59551,1252.337656 1263.59551,1111.328373 C1263.59551,970.31909 1378.137465,855.777135 1519.146748,855.777135 Z" fill="none" stroke="#000000" stroke-width="12.6"/>
			</g>
			<g transform="matrix(1,0,0,1,0,511.102476442)">
				<path d="M1519.146748,827.432358C1675.796248,827.432358 1803.042763,954.678873 1803.042763,1111.328373 C1803.042763,1267.977872 1675.796248,1395.224388 1519.146748,1395.224388 C1362.497248,1395.224388 1235.250733,1267.977872 1235.250733,1111.328373 C1235.250733,954.678873 1362.497248,827.432358 1519.146748,827.432358 Z" transform="matrix(1,0,0,1,0,0)" fill="none" stroke="#000000" stroke-width="12.6"/>
			</g>
			<g transform="matrix(1,0,0,1,0,511.102476442)">
				<path d="M1519.146748,801.449645C1690.133113,801.449645 1829.025475,940.342008 1829.025475,1111.328373 C1829.025475,1282.314738 1690.133113,1421.2071 1519.146748,1421.2071 C1348.160383,1421.2071 1209.26802,1282.314738 1209.26802,1111.328373 C1209.26802,940.342008 1348.160383,801.449645 1519.146748,801.449645 Z" fill="none" stroke="#000000" stroke-width="12.6"/>
			</g>
		</g>
	</g>
	<g>
		<g transform="matrix(0.511458688,0,0,0.511458688,80.50426297,-308.241112073)">
			<g>
				<path d="M1519.146748,780.222535C1701.845909,780.222535 1850.252586,928.629212 1850.252586,1111.328373 C1850.252586,1294.027534 1701.845909,1442.434211 1519.146748,1442.434211 C1336.447587,1442.434211 1188.04091,1294.027534 1188.04091,1111.328373 C1188.04091,928.629212 1336.447587,780.222535 1519.146748,780.222535 Z" fill="#ffffff"/>
			</g>
			<g>
				<path d="M1519.146748,951.212039C1607.496504,951.212039 1679.263082,1022.978617 1679.263082,1111.328373 C1679.263082,1199.678129 1607.496504,1271.444707 1519.146748,1271.444707 C1430.796992,1271.444707 1359.030414,1199.678129 1359.030414,1111.328373 C1359.030414,1022.978617 1430.796992,951.212039 1519.146748,951.212039 Z" fill="#000000"/>
			</g>
			<g>
				<path d="M1519.146748,910.891979C1629.744499,910.891979 1719.583142,1000.730622 1719.583142,1111.328373 C1719.583142,1221.926124 1629.744499,1311.764767 1519.146748,1311.764767 C1408.548997,1311.764767 1318.710354,1221.926124 1318.710354,1111.328373 C1318.710354,1000.730622 1408.548997,910.891979 1519.146748,910.891979 Z" transform="matrix(1,0,0,1,0,0)" fill="none" stroke="#000000" stroke-width="12.6"/>
			</g>
			<g>
				<path d="M1519.146748,855.777135C1660.156031,855.777135 1774.697986,970.31909 1774.697986,1111.328373 C1774.697986,1252.337656 1660.156031,1366.879611 1519.146748,1366.879611 C1378.137465,1366.879611 1263.59551,1252.337656 1263.59551,1111.328373 C1263.59551,970.31909 1378.137465,855.777135 1519.146748,855.777135 Z" fill="none" stroke="#000000" stroke-width="12.6"/>
			</g>
			<g>
				<path d="M1519.146748,801.449645C1690.133113,801.449645 1829.025475,940.342008 1829.025475,1111.328373 C1829.025475,1282.314738 1690.133113,1421.2071 1519.146748,1421.2071 C1348.160383,1421.2071 1209.26802,1282.314738 1209.26802,1111.328373 C1209.26802,940.342008 1348.160383,801.449645 1519.146748,801.449645 Z" fill="none" stroke="#000000" stroke-width="12.6"/>
			</g>
		</g>
		<g transform="matrix(0.511458688,0,0,0.511458688,80.50426297,-308.241112073)">
			<g transform="matrix(1,0,0,1,0,1022.204952884)">
				<path d="M1519.146748,780.222535C1701.845909,780.222535 1850.252586,928.629212 1850.252586,1111.328373 C1850.252586,1294.027534 1701.845909,1442.434211 1519.146748,1442.434211 C1336.447587,1442.434211 1188.04091,1294.027534 1188.04091,1111.328373 C1188.04091,928.629212 1336.447587,780.222535 1519.146748,780.222535 Z" fill="#ffffff"/>
			</g>
			<g transform="matrix(1,0,0,1,0,1022.204952884)">
				<path d="M1519.146748,951.212039C1607.496504,951.212039 1679.263082,1022.978617 1679.263082,1111.328373 C1679.263082,1199.678129 1607.496504,1271.444707 1519.146748,1271.444707 C1430.796992,1271.444707 1359.030414,1199.678129 1359.030414,1111.328373 C1359.030414,1022.978617 1430.796992,951.212039 1519.146748,951.212039 Z" fill="#000000"/>
			</g>
			<g transform="matrix(1,0,0,1,0,1022.204952884)">
				<path d="M1519.146748,910.891979C1629.744499,910.891979 1719.583142,1000.730622 1719.583142,1111.328373 C1719.583142,1221.926124 1629.744499,1311.764767 1519.146748,1311.764767 C1408.548997,1311.764767 1318.710354,1221.926124 1318.710354,1111.328373 C1318.710354,1000.730622 1408.548997,910.891979 1519.146748,910.891979 Z" transform="matrix(1,0,0,1,0,0)" fill="none" stroke="#000000" stroke-width="12.6"/>
			</g>
			<g transform="matrix(1,0,0,1,0,1022.204952884)">
				<path d="M1519.146748,855.777135C1660.156031,855.777135 1774.697986,970.31909 1774.697986,1111.328373 C1774.697986,1252.337656 1660.156031,1366.879611 1519.146748,1366.879611 C1378.137465,1366.879611 1263.59551,1252.337656 1263.59551,1111.328373 C1263.59551,970.31909 1378.137465,855.777135 1519.146748,855.777135 Z" fill="none" stroke="#000000" stroke-width="12.6"/>
			</g>
			<g transform="matrix(1,0,0,1,0,1022.204952884)">
				<path d="M1519.146748,801.449645C1690.133113,801.449645 1829.025475,940.342008 1829.025475,1111.328373 C1829.025475,1282.314738 1690.133113,1421.2071 1519.146748,1421.2071 C1348.160383,1421.2071 1209.26802,1282.314738 1209.26802,1111.328373 C1209.26802,940.342008 1348.160383,801.449645 1519.146748,801.449645 Z" fill="none" stroke="#000000" stroke-width="12.6"/>
			</g>
		</g>
		<g transform="matrix(0.511458688,0,0,0.511458688,80.50426297,-308.241112073)">
			<g transform="matrix(1,0,0,1,0,511.102476442)">
				<path d="M1519.146748,780.222535C1701.845909,780.222535 1850.252586,928.629212 1850.252586,1111.328373 C1850.252586,1294.027534 1701.845909,1442.434211 1519.146748,1442.434211 C1336.447587,1442.434211 1188.04091,1294.027534 1188.04091,1111.328373 C1188.04091,928.629212 1336.447587,780.222535 1519.146748,780.222535 Z" fill="#ffffff"/>
			</g>
			<g transform="matrix(1,0,0,1,0,511.102476442)">
				<path d="M1519.146748,951.212039C1607.496504,951.212039 1679.263082,1022.978617 1679.263082,1111.328373 C1679.263082,1199.678129 1607.496504,1271.444707 1519.146748,1271.444707 C1430.796992,1271.444707 1359.030414,1199.678129 1359.030414,1111.328373 C1359.030414,1022.978617 1430.796992,951.212039 1519.146748,951.212039 Z" fill="#000000"/>
			</g>
			<g transform="matrix(1,0,0,1,0,511.102476442)">
				<path d="M1519.146748,910.891979C1629.744499,910.891979 1719.583142,1000.730622 1719.583142,1111.328373 C1719.583142,1221.926124 1629.744499,1311.764767 1519.146748,1311.764767 C1408.548997,1311.764767 1318.710354,1221.926124 1318.710354,1111.328373 C1318.710354,1000.730622 1408.548997,910.891979 1519.146748,910.891979 Z" transform="matrix(1,0,0,1,0,0)" fill="none" stroke="#000000" stroke-width="12.6"/>
			</g>
			<g transform="matrix(1,0,0,1,0,511.102476442)">
				<path d="M1519.146748,855.777135C1660.156031,855.777135 1774.697986,970.31909 1774.697986,1111.328373 C1774.697986,1252.337656 1660.156031,1366.879611 1519.146748,1366.879611 C1378.137465,1366.879611 1263.59551,1252.337656 1263.59551,1111.328373 C1263.59551,970.31909 1378.137465,855.777135 1519.146748,855.777135 Z" fill="none" stroke="#000000" stroke-width="12.6"/>
			</g>
			<g transform="matrix(1,0,0,1,0,511.102476442)">
				<path d="M1519.146748,801.449645C1690.133113,801.449645 1829.025475,940.342008 1829.025475,1111.328373 C1829.025475,1282.314738 1690.133113,1421.2071 1519.146748,1421.2071 C1348.160383,1421.2071 1209.26802,1282.314738 1209.26802,1111.328373 C1209.26802,940.342008 1348.160383,801.449645 1519.146748,801.449645 Z" fill="none" stroke="#000000" stroke-width="12.6"/>
			</g>
		</g>
	</g>
</g></g></svg>